<svg id="visual" viewBox="0 0 900 600" width="900" height="600" xmlns="http://www.w3.org/2000/svg" xmlns:xlink="http://www.w3.org/1999/xlink" version="1.1"><rect x="0" y="0" width="900" height="600" fill="#ffffff"></rect><path d="M0 519L8.8 501.8C17.7 484.7 35.3 450.3 53 447.5C70.7 444.7 88.3 473.3 106 490.8C123.7 508.3 141.3 514.7 159 512.8C176.7 511 194.3 501 212 483.7C229.7 466.3 247.3 441.7 265 431.2C282.7 420.7 300.3 424.3 318 436.5C335.7 448.7 353.3 469.3 371 481.3C388.7 493.3 406.3 496.7 423.8 492.8C441.3 489 458.7 478 476.2 465.5C493.7 453 511.3 439 529 442.7C546.7 446.3 564.3 467.7 582 460.3C599.7 453 617.3 417 635 411.5C652.7 406 670.3 431 688 444.2C705.7 457.3 723.3 458.7 741 453.2C758.7 447.7 776.3 435.3 794 428.7C811.7 422 829.3 421 847 428C864.7 435 882.3 450 891.2 457.5L900 465L900 601L891.2 601C882.3 601 864.7 601 847 601C829.3 601 811.7 601 794 601C776.3 601 758.7 601 741 601C723.3 601 705.7 601 688 601C670.3 601 652.7 601 635 601C617.3 601 599.7 601 582 601C564.3 601 546.7 601 529 601C511.3 601 493.7 601 476.2 601C458.7 601 441.3 601 423.8 601C406.3 601 388.7 601 371 601C353.3 601 335.7 601 318 601C300.3 601 282.7 601 265 601C247.3 601 229.7 601 212 601C194.3 601 176.7 601 159 601C141.3 601 123.7 601 106 601C88.3 601 70.7 601 53 601C35.3 601 17.7 601 8.8 601L0 601Z" fill="#bdbdbd" stroke-linecap="round" stroke-linejoin="miter"></path></svg>