<svg id="visual" viewBox="0 0 900 600" width="900" height="600" xmlns="http://www.w3.org/2000/svg" xmlns:xlink="http://www.w3.org/1999/xlink" version="1.1"><rect x="0" y="0" width="900" height="600" fill="#ffffff"></rect><path d="M0 492L8.8 475.3C17.7 458.7 35.3 425.3 53 406.2C70.7 387 88.3 382 106 390.8C123.7 399.7 141.3 422.3 159 425.8C176.7 429.3 194.3 413.7 212 426.5C229.7 439.3 247.3 480.7 265 493.8C282.7 507 300.3 492 318 468.3C335.7 444.7 353.3 412.3 371 403.2C388.7 394 406.3 408 423.8 413.5C441.3 419 458.7 416 476.2 424.2C493.7 432.3 511.3 451.7 529 452.2C546.7 452.7 564.3 434.3 582 423.7C599.7 413 617.3 410 635 409.2C652.7 408.3 670.3 409.7 688 412.7C705.7 415.7 723.3 420.3 741 432.3C758.7 444.3 776.3 463.7 794 462.5C811.7 461.3 829.3 439.7 847 440.2C864.7 440.7 882.3 463.3 891.2 474.7L900 486L900 601L891.2 601C882.3 601 864.7 601 847 601C829.3 601 811.7 601 794 601C776.3 601 758.7 601 741 601C723.3 601 705.7 601 688 601C670.3 601 652.7 601 635 601C617.3 601 599.7 601 582 601C564.3 601 546.7 601 529 601C511.3 601 493.7 601 476.2 601C458.7 601 441.3 601 423.8 601C406.3 601 388.7 601 371 601C353.3 601 335.7 601 318 601C300.3 601 282.7 601 265 601C247.3 601 229.7 601 212 601C194.3 601 176.7 601 159 601C141.3 601 123.7 601 106 601C88.3 601 70.7 601 53 601C35.3 601 17.7 601 8.8 601L0 601Z" fill="#bdbdbd" stroke-linecap="round" stroke-linejoin="miter"></path></svg>