<svg id="visual" viewBox="0 0 900 600" width="900" height="600" xmlns="http://www.w3.org/2000/svg" xmlns:xlink="http://www.w3.org/1999/xlink" version="1.1"><rect x="0" y="0" width="900" height="600" fill="#ffffff"></rect><path d="M0 474L8.8 460C17.7 446 35.3 418 53 420.8C70.7 423.7 88.3 457.3 106 458.8C123.7 460.3 141.3 429.7 159 413.2C176.7 396.7 194.3 394.3 212 392.7C229.7 391 247.3 390 265 399.8C282.7 409.7 300.3 430.3 318 444C335.7 457.7 353.3 464.3 371 460.2C388.7 456 406.3 441 423.8 441.2C441.3 441.3 458.7 456.7 476.2 466.7C493.7 476.7 511.3 481.3 529 484.5C546.7 487.7 564.3 489.3 582 484.7C599.7 480 617.3 469 635 465.8C652.7 462.7 670.3 467.3 688 458.7C705.7 450 723.3 428 741 424.8C758.7 421.7 776.3 437.3 794 442.7C811.7 448 829.3 443 847 434C864.7 425 882.3 412 891.2 405.5L900 399L900 601L891.2 601C882.3 601 864.7 601 847 601C829.3 601 811.7 601 794 601C776.3 601 758.7 601 741 601C723.3 601 705.7 601 688 601C670.3 601 652.7 601 635 601C617.3 601 599.7 601 582 601C564.3 601 546.7 601 529 601C511.3 601 493.7 601 476.2 601C458.7 601 441.3 601 423.8 601C406.3 601 388.7 601 371 601C353.3 601 335.7 601 318 601C300.3 601 282.7 601 265 601C247.3 601 229.7 601 212 601C194.3 601 176.7 601 159 601C141.3 601 123.7 601 106 601C88.3 601 70.7 601 53 601C35.3 601 17.7 601 8.8 601L0 601Z" fill="#000000" stroke-linecap="round" stroke-linejoin="miter"></path></svg>